<svg width="32" height="49" viewBox="0 0 32 49" fill="none" xmlns="http://www.w3.org/2000/svg">
<path d="M16 0.666748C20.2435 0.666748 24.3131 2.35246 27.3137 5.35304C30.3143 8.35362 32 12.4233 32 16.6667C32 24.5867 26.24 31.1734 18.6667 32.4534V38.0001H24V43.3334H18.6667V48.6667H13.3333V43.3334H8V38.0001H13.3333V32.4534C5.76 31.1734 0 24.5867 0 16.6667C0 12.4233 1.68571 8.35362 4.68629 5.35304C7.68687 2.35246 11.7565 0.666748 16 0.666748ZM16 6.00008C13.171 6.00008 10.4579 7.12389 8.45753 9.12428C6.45714 11.1247 5.33333 13.8378 5.33333 16.6667C5.33333 19.4957 6.45714 22.2088 8.45753 24.2092C10.4579 26.2096 13.171 27.3334 16 27.3334C18.829 27.3334 21.5421 26.2096 23.5425 24.2092C25.5429 22.2088 26.6667 19.4957 26.6667 16.6667C26.6667 13.8378 25.5429 11.1247 23.5425 9.12428C21.5421 7.12389 18.829 6.00008 16 6.00008Z" fill="white"/>
</svg>
