<svg width="36" height="36" viewBox="0 0 36 36" fill="none" xmlns="http://www.w3.org/2000/svg">
<path d="M17.4064 1.55591L15.7775 5.74688L13.5885 1.8483L12.774 5.84437L9.66873 2.09198L10.1271 7.49245C12.0511 9.33428 22.7338 9.36131 24.686 7.49245L25.0933 2.09212L21.988 5.8445L21.1736 1.84844L18.9845 5.6983L17.4065 1.55611H17.4064V1.55591ZM17.4381 10.2773C16.1167 10.2773 14.8919 10.8926 13.9759 12.0132C13.0601 13.1339 12.4923 14.7489 12.4923 16.5111C12.4923 18.381 13.1606 20.0334 14.1822 21.1668L14.924 21.956L13.8524 22.1928C11.0098 22.8127 9.65257 24.1035 8.86542 26.0988C8.13267 27.9564 8.01757 30.5185 8 33.5559H27C26.9967 30.5057 26.9753 27.8768 26.2994 25.9803C25.5739 23.9448 24.2442 22.6465 21.1887 22.0744L20.117 21.8771L20.8177 21.0485C21.7756 19.9213 22.3839 18.3151 22.3839 16.5111C22.3839 14.7489 21.8159 13.1339 20.9 12.0132C19.9841 10.8926 18.7594 10.2773 17.438 10.2773L17.4381 10.2773Z" fill="black"/>
</svg>
