<svg width="44" height="44" viewBox="0 0 44 44" fill="none" xmlns="http://www.w3.org/2000/svg">
<path d="M14.75 14.75C17.8675 14.75 20.7917 15.7408 23.1358 17.4325L35.485 5.08333H24.4167V0.25H43.75V19.5833H38.9167V8.49083L26.5675 20.7917C28.2592 23.2083 29.25 26.1083 29.25 29.25C29.25 33.0956 27.7223 36.7838 25.003 39.5031C22.2838 42.2223 18.5956 43.75 14.75 43.75C10.9044 43.75 7.21623 42.2223 4.49695 39.5031C1.77767 36.7838 0.25 33.0956 0.25 29.25C0.25 25.4044 1.77767 21.7162 4.49695 18.997C7.21623 16.2777 10.9044 14.75 14.75 14.75ZM14.75 19.5833C12.1862 19.5833 9.72749 20.6018 7.91463 22.4146C6.10178 24.2275 5.08333 26.6862 5.08333 29.25C5.08333 31.8138 6.10178 34.2725 7.91463 36.0854C9.72749 37.8982 12.1862 38.9167 14.75 38.9167C17.3138 38.9167 19.7725 37.8982 21.5854 36.0854C23.3982 34.2725 24.4167 31.8138 24.4167 29.25C24.4167 26.6862 23.3982 24.2275 21.5854 22.4146C19.7725 20.6018 17.3138 19.5833 14.75 19.5833Z" fill="white"/>
</svg>
