<svg width="36" height="36" viewBox="0 0 36 36" fill="none" xmlns="http://www.w3.org/2000/svg">
<path d="M16.5076 3L27.4546 6.42C27.7599 6.51531 28.0267 6.70572 28.2162 6.96343C28.4056 7.22114 28.5077 7.53266 28.5076 7.8525V10.5H31.5076C31.9054 10.5 32.2869 10.658 32.5682 10.9393C32.8495 11.2206 33.0076 11.6022 33.0076 12V24C33.0076 24.3978 32.8495 24.7794 32.5682 25.0607C32.2869 25.342 31.9054 25.5 31.5076 25.5L26.6776 25.5015C26.0971 26.2665 25.3921 26.9415 24.5776 27.4965L16.5076 33L8.43757 27.498C7.22635 26.6722 6.2352 25.563 5.55028 24.2669C4.86536 22.9708 4.50742 21.527 4.50757 20.061V7.8525C4.50775 7.53291 4.61 7.22174 4.79941 6.96433C4.98883 6.70692 5.2555 6.51674 5.56057 6.4215L16.5076 3ZM16.5076 6.141L7.50757 8.955V20.061C7.50735 20.9793 7.71794 21.8855 8.12312 22.7096C8.52829 23.5337 9.11723 24.2539 9.84457 24.8145L10.1281 25.0185L16.5076 29.3685L22.1806 25.5H15.0076C14.6097 25.5 14.2282 25.342 13.9469 25.0607C13.6656 24.7794 13.5076 24.3978 13.5076 24V12C13.5076 11.6022 13.6656 11.2206 13.9469 10.9393C14.2282 10.658 14.6097 10.5 15.0076 10.5H25.5076V8.955L16.5076 6.141ZM16.5076 18V22.5H30.0076V18H16.5076ZM16.5076 15H30.0076V13.5H16.5076V15Z" fill="black"/>
</svg>
