<svg width="36" height="36" viewBox="0 0 36 36" fill="none" xmlns="http://www.w3.org/2000/svg">
<path d="M18.45 13.395L14.82 9.75H23.25V15H25.5V7.5H14.82L18.45 3.855L16.86 2.25L10.5 8.625L16.86 15L18.45 13.395ZM18 21C17.11 21 16.24 21.2639 15.4999 21.7584C14.7599 22.2529 14.1831 22.9557 13.8425 23.7779C13.5019 24.6002 13.4128 25.505 13.5865 26.3779C13.7601 27.2508 14.1887 28.0526 14.818 28.682C15.4474 29.3113 16.2492 29.7399 17.1221 29.9135C17.995 30.0872 18.8998 29.9981 19.7221 29.6575C20.5443 29.3169 21.2471 28.7401 21.7416 28.0001C22.2361 27.26 22.5 26.39 22.5 25.5C22.5 24.3065 22.0259 23.1619 21.182 22.318C20.3381 21.4741 19.1935 21 18 21ZM4.5 16.5V34.5H31.5V16.5M28.5 28.5C27.7044 28.5 26.9413 28.8161 26.3787 29.3787C25.8161 29.9413 25.5 30.7044 25.5 31.5H10.5C10.5 30.7044 10.1839 29.9413 9.62132 29.3787C9.05871 28.8161 8.29565 28.5 7.5 28.5V22.5C8.29565 22.5 9.05871 22.1839 9.62132 21.6213C10.1839 21.0587 10.5 20.2956 10.5 19.5H25.5C25.5 20.2956 25.8161 21.0587 26.3787 21.6213C26.9413 22.1839 27.7044 22.5 28.5 22.5V28.5Z" fill="black"/>
</svg>
